<?xml version="1.0" encoding="iso-8859-1"?>
<!-- Generator: Adobe Illustrator 19.0.0, SVG Export Plug-In . SVG Version: 6.00 Build 0)  -->
<svg version="1.1" id="Capa_1" xmlns="http://www.w3.org/2000/svg" xmlns:xlink="http://www.w3.org/1999/xlink" x="0px" y="0px"
	 viewBox="0 0 480.639 480.639" style="enable-background:new 0 0 480.639 480.639;" xml:space="preserve">
<g>
	<g>
		<circle cx="96.212" cy="176.114" r="8"/>
	</g>
</g>
<g>
	<g>
		<circle cx="376.212" cy="176.114" r="8"/>
	</g>
</g>
<g>
	<g>
		<rect x="168.212" y="32.114" width="144" height="16"/>
	</g>
</g>
<g>
	<g>
		<rect x="168.212" y="64.114" width="32" height="16"/>
	</g>
</g>
<g>
	<g>
		<rect x="216.212" y="64.114" width="96" height="16"/>
	</g>
</g>
<g>
	<g>
		<path d="M312.212,0.114h-144c-17.673,0-32,14.327-32,32v48c0.011,14.583,9.88,27.314,24,30.96v17.04
			c0.005,2.886,1.564,5.546,4.08,6.96c1.196,0.678,2.546,1.036,3.92,1.04c1.436,0,2.845-0.387,4.08-1.12l3.92-2.32v11.44
			c0,17.673,14.327,32,32,32h21.76l38.16,22.88c1.235,0.733,2.644,1.12,4.08,1.12c1.374-0.004,2.724-0.362,3.92-1.04
			c2.516-1.414,4.075-4.074,4.08-6.96v-16h8c17.673,0,32-14.327,32-32v-16c-0.084-5.653-1.686-11.179-4.64-16
			c16.349-1.726,28.731-15.56,28.64-32v-48C344.212,14.44,329.885,0.114,312.212,0.114z M304.212,144.114c0,8.837-7.163,16-16,16
			h-16c-4.418,0-8,3.582-8,8v9.84l-27.92-16.72c-1.235-0.733-2.644-1.12-4.08-1.12h-24c-8.837,0-16-7.163-16-16v-21.04l18.24-10.96
			h77.76c8.837,0,16,7.163,16,16V144.114z M328.212,80.114c0,8.837-7.163,16-16,16h-104c-1.436,0-2.845,0.387-4.08,1.12
			l-27.92,16.72v-9.84c0-4.418-3.582-8-8-8c-8.837,0-16-7.163-16-16v-48c0-8.837,7.163-16,16-16h144c8.837,0,16,7.163,16,16V80.114z
			"/>
	</g>
</g>
<g>
	<g>
		<rect x="208.212" y="128.114" width="48" height="16"/>
	</g>
</g>
<g>
	<g>
		<rect x="272.212" y="128.114" width="16" height="16"/>
	</g>
</g>
<g>
	<g>
		<path d="M475.209,464.526c-0.012-0.004-0.025-0.008-0.037-0.013l-42.96-14.16v-26.24h16c17.673,0,32-14.327,32-32v-112
			c0-13.255-10.745-24-24-24c-3.646,0.021-7.235,0.898-10.48,2.56c-3.717-10.302-11.495-18.63-21.52-23.04
			c10.114-9.046,15.927-21.951,16-35.52v-40c0-26.51-21.49-48-48-48h-44c-11.046,0.025-19.98,9-19.955,20.045
			c0.019,8.576,5.504,16.185,13.635,18.915l-13.68,46.88c-0.678,2.393-0.205,4.965,1.28,6.96c1.511,2.014,3.882,3.2,6.4,3.2h8.64
			c1.937,10.67,7.471,20.354,15.68,27.44c-14.544,6.347-23.96,20.692-24,36.56v16h-116.48l20-53.2l-15.04-5.6l-22,58.8h-58.48v-16
			c-0.04-15.868-9.456-30.213-24-36.56c8.091-7.134,13.509-16.813,15.36-27.44h8.64c2.518,0,4.889-1.186,6.4-3.2
			c1.485-1.995,1.958-4.567,1.28-6.96l-15.68-54.32c5.126-6.776,7.931-15.024,8-23.52c0-4.418-3.582-8-8-8h-64
			c-17.673,0-32,14.327-32,32v56c0.073,13.569,5.886,26.474,16,35.52c-9.964,4.445-17.68,12.768-21.36,23.04
			c-3.293-1.687-6.94-2.564-10.64-2.56c-13.255,0-24,10.745-24,24v112c0,17.673,14.327,32,32,32h16v26.24l-42.56,14.16
			c-4.308,1.414-6.654,6.052-5.24,10.36c1.414,4.308,6.052,6.654,10.36,5.24l45.44-15.6l45.44,15.6c0.85,0.11,1.71,0.11,2.56,0
			c3.439,0.009,6.499-2.182,7.6-5.44c1.421-4.184-0.819-8.727-5.003-10.148c-0.012-0.004-0.025-0.008-0.037-0.013l-42.56-14.16
			v-26.24h24c13.255-0.037,23.97-10.813,23.932-24.067c-0.008-2.703-0.472-5.385-1.372-7.933h17.44v80c0,4.418,3.582,8,8,8h208
			c4.418,0,8-3.582,8-8v-80h17.44c-4.418,12.497,2.131,26.209,14.627,30.627c2.548,0.901,5.23,1.365,7.933,1.373h24v26.24
			l-42.56,14.16c-4.197,1.414-6.454,5.963-5.04,10.16c1.414,4.197,5.963,6.454,10.16,5.04l45.44-15.2l45.44,15.6
			c0.85,0.11,1.71,0.11,2.56,0c3.585,0.187,6.856-2.037,8-5.44C481.632,470.49,479.392,465.947,475.209,464.526z M423.092,152.114
			c0.702,2.61,1.079,5.297,1.12,8v1.52l-8-9.52H423.092z M344.212,132.114c0-2.209,1.791-4,4-4h44c7.723,0.05,15.168,2.891,20.96,8
			h-64.96C346.002,136.114,344.212,134.323,344.212,132.114z M352.212,192.114h-5.36l11.36-40h37.6l28.4,34.88v13.12
			c0,17.673-14.327,32-32,32c-17.673,0-32-14.327-32-32C360.212,195.695,356.63,192.114,352.212,192.114z M352.212,272.113
			c0-13.255,10.745-24,24-24h8v72h16v-72h8c13.255,0,24,10.745,24,24v64h-80V272.113z M144.212,304.113h192v16h-192V304.113z
			 M56.212,144.114c0-8.837,7.163-16,16-16h54.64c-3.392,9.593-12.465,16.005-22.64,16h-32c-2.518,0-4.889,1.186-6.4,3.2l-9.6,12.8
			V144.114z M56.212,186.754l20-26.64h28c6.584-0.048,13.049-1.754,18.8-4.96l10.56,36.96h-5.36c-4.418,0-8,3.582-8,8
			c0,17.673-14.327,32-32,32s-32-14.327-32-32V186.754z M48.212,272.113c0-13.255,10.745-24,24-24h8v72h16v-72h8
			c13.255,0,24,10.745,24,24v64h-80V272.113z M88.212,408.113h-56c-8.837,0-16-7.163-16-16v-112c0-4.418,3.582-8,8-8s8,3.582,8,8v64
			c0.027,11.82,4.414,23.214,12.32,32h-4.32c-4.418,0-8,3.582-8,8s3.582,8,8,8h48c4.418,0,8,3.582,8,8S92.63,408.113,88.212,408.113
			z M144.212,464.113v-80c0-4.418-3.582-8-8-8h-56c-14.583-0.011-27.314-9.88-30.96-24h94.96c13.255,0,24,10.745,24,24v72
			c0.012,1.568,0.485,3.098,1.36,4.4l8,11.6H144.212z M232.212,464.113h-35.68l-12.32-18.4v-69.6c0-22.091-17.909-40-40-40h88
			V464.113z M296.212,445.713l-12.32,18.4h-35.68v-128h88c-22.091,0-40,17.909-40,40V445.713z M344.212,376.113
			c-4.418,0-8,3.582-8,8v80h-33.04l8-11.6c0.763-1.336,1.124-2.864,1.04-4.4v-72c0-13.255,10.745-24,24-24h94.96
			c-3.646,14.12-16.377,23.989-30.96,24H344.212z M392.212,408.113c-4.418,0-8-3.582-8-8s3.582-8,8-8h48c4.418,0,8-3.582,8-8
			s-3.582-8-8-8h-4.32c7.907-8.786,12.293-20.18,12.32-32v-64c0-4.418,3.582-8,8-8s8,3.582,8,8v112c0,8.837-7.163,16-16,16H392.212z
			"/>
	</g>
</g>
<g>
</g>
<g>
</g>
<g>
</g>
<g>
</g>
<g>
</g>
<g>
</g>
<g>
</g>
<g>
</g>
<g>
</g>
<g>
</g>
<g>
</g>
<g>
</g>
<g>
</g>
<g>
</g>
<g>
</g>
</svg>
