<svg height="511pt" viewBox="0 1 511 511.99944" width="511pt" xmlns="http://www.w3.org/2000/svg"><path d="m497.496094 482h-51.03125v-302.09375l15.53125 6.382812c1.867187.769532 3.796875 1.132813 5.695312 1.132813 5.902344 0 11.5-3.507813 13.882813-9.304687 3.148437-7.660157-.511719-16.425782-8.171875-19.574219l-26.9375-11.070313v-19.625l15.53125 6.382813c1.863281.765625 3.796875 1.128906 5.695312 1.128906 5.902344 0 11.496094-3.503906 13.878906-9.300781 3.152344-7.660156-.507812-16.425782-8.171874-19.574219l-256.316407-105.355469c-7.660156-3.148437-16.425781.511719-19.578125 8.171875-3.148437 7.664063.511719 16.425781 8.171875 19.578125l15.929688 6.546875v19.621094l-4.523438-1.859375c-7.660156-3.144531-16.425781.511719-19.574219 8.171875-3.152343 7.664063.507813 16.429687 8.171876 19.578125l15.925781 6.546875v29.875l-127.457031 65.917969c-16.90625 8.742187-27.40625 26.003906-27.40625 45.046875v253.675781h-51.242188c-8.285156 0-15 6.714844-15 15s6.714844 15 15 15h481.996094c8.285156 0 15-6.714844 15-15s-6.714844-15-15-15zm-245.890625-434.246094 164.859375 67.761719v19.625l-164.859375-67.761719zm-77.433594 434.246094v-47.714844c0-8.28125-6.714844-15-15-15-8.28125 0-15 6.71875-15 15v47.714844h-47.429687v-92.828125h62.429687c8.285156 0 15-6.71875 15-15 0-8.285156-6.714844-15-15-15h-62.429687v-25.066406h62.429687c8.285156 0 15-6.714844 15-15 0-8.28125-6.714844-15-15-15h-62.429687v-25.847657h62.429687c8.285156 0 15-6.714843 15-15 0-8.285156-6.714844-15-15-15h-62.429687v-19.933593c0-7.78125 4.285156-14.832031 11.1875-18.402344l113.675781-58.789063v330.867188zm204.863281 0v-47.714844c0-8.28125-6.714844-15-15-15s-15 6.71875-15 15v47.714844h-30v-47.714844c0-8.28125-6.714844-15-15-15s-15 6.71875-15 15v47.714844h-37.429687v-382.1875l164.859375 67.761719v314.425781zm0 0"/><path d="m303.800781 308.664062c8.285157 0 15-6.714843 15-15v-30.40625c0-8.285156-6.714843-15-15-15-8.28125 0-15 6.714844-15 15v30.40625c0 8.285157 6.714844 15 15 15zm0 0"/><path d="m364.066406 308.664062c8.285156 0 15-6.714843 15-15v-30.40625c0-8.285156-6.714844-15-15-15s-15 6.714844-15 15v30.40625c0 8.285157 6.714844 15 15 15zm0 0"/><path d="m304.003906 328.757812c-8.285156 0-15 6.714844-15 15v30.40625c0 8.285157 6.714844 15 15 15s15-6.714843 15-15v-30.40625c0-8.285156-6.714844-15-15-15zm0 0"/><path d="m364.265625 328.757812c-8.28125 0-15 6.714844-15 15v30.40625c0 8.285157 6.71875 15 15 15 8.285156 0 15-6.714843 15-15v-30.40625c0-8.285156-6.714844-15-15-15zm0 0"/><path d="m303.902344 228.433594c8.285156 0 15-6.71875 15-15v-30.40625c0-8.285156-6.714844-15-15-15s-15 6.714844-15 15v30.40625c0 8.28125 6.714844 15 15 15zm0 0"/><path d="m364.167969 228.433594c8.28125 0 15-6.71875 15-15v-30.40625c0-8.285156-6.71875-15-15-15-8.285157 0-15 6.714844-15 15v30.40625c0 8.28125 6.714843 15 15 15zm0 0"/></svg>